<svg xmlns="http://www.w3.org/2000/svg" version="1.1" viewBox="0.7624975442886353 1.518831729888916 475.5093078613281 468.8766784667969" width="478.00" height="472.00">
<path fill="#ffa820" d="&#10;  M 380.12 155.32&#10;  Q 374.58 152.47 370.76 150.94&#10;  C 365.90 148.99 366.54 145.94 366.41 140.64&#10;  C 366.23 133.82 367.24 125.85 367.28 120.31&#10;  Q 367.31 114.59 367.32 108.96&#10;  A 1.92 1.92 0.0 0 0 365.97 107.11&#10;  Q 332.74 96.63 322.97 63.25&#10;  A 1.29 1.29 0.0 0 0 321.34 62.38&#10;  C 315.49 64.24 309.46 65.72 304.13 68.61&#10;  Q 290.86 75.80 279.03 85.24&#10;  C 274.82 88.60 262.07 96.79 257.49 94.14&#10;  C 254.30 92.30 255.27 87.64 257.44 85.44&#10;  Q 274.95 67.66 296.81 54.89&#10;  C 304.45 50.43 314.50 46.85 323.06 42.02&#10;  A 1.78 1.69 -2.7 0 0 323.74 41.31&#10;  Q 329.03 31.07 331.54 27.50&#10;  C 339.37 16.41 350.07 7.27 363.32 3.90&#10;  C 392.57 -3.55 419.72 12.57 428.24 41.29&#10;  C 432.21 54.68 430.82 67.73 423.91 80.03&#10;  Q 411.38 102.32 384.33 107.61&#10;  A 1.87 1.87 0.0 0 0 382.83 109.43&#10;  Q 382.77 123.92 382.66 139.00&#10;  C 382.65 140.40 382.21 141.69 382.28 143.00&#10;  Q 382.60 149.61 381.61 155.51&#10;  A 2.43 2.42 13.9 0 0 383.25 158.22&#10;  Q 416.12 168.84 443.72 189.79&#10;  C 461.41 203.21 479.83 227.76 475.68 251.40&#10;  C 474.38 258.86 472.07 265.00 468.05 271.83&#10;  C 465.92 275.45 463.88 279.24 461.22 282.42&#10;  Q 445.07 301.79 423.00 314.29&#10;  Q 413.36 319.75 403.62 325.12&#10;  A 0.99 0.98 -11.6 0 0 403.11 325.89&#10;  C 402.10 336.35 400.67 346.17 392.75 352.88&#10;  C 389.92 355.28 385.98 356.96 382.48 358.61&#10;  A 1.93 1.93 0.0 0 0 381.37 360.46&#10;  C 382.28 377.23 382.05 393.43 370.79 406.93&#10;  Q 370.44 407.35 370.87 407.68&#10;  Q 374.65 410.66 378.57 413.43&#10;  C 381.96 415.83 383.77 418.92 386.69 421.66&#10;  C 392.65 427.24 393.94 438.41 392.57 445.59&#10;  C 389.57 461.38 372.87 473.59 356.72 469.65&#10;  Q 350.78 468.21 345.68 464.86&#10;  C 337.30 459.36 331.33 448.05 328.00 438.76&#10;  A 1.80 1.79 -7.6 0 0 326.45 437.58&#10;  C 316.67 436.81 308.12 434.28 299.22 429.27&#10;  C 274.42 415.31 255.06 396.18 237.46 374.02&#10;  Q 237.12 373.60 236.80 374.04&#10;  C 234.58 377.10 232.82 380.39 230.38 383.12&#10;  Q 223.84 390.45 217.07 397.56&#10;  Q 199.47 416.05 177.04 428.20&#10;  C 167.62 433.31 159.25 436.76 149.56 436.93&#10;  A 1.32 1.31 7.1 0 0 148.32 437.89&#10;  C 145.10 449.53 136.60 463.55 124.80 468.27&#10;  Q 119.79 470.27 113.23 470.18&#10;  C 98.02 469.99 85.68 459.46 82.81 444.88&#10;  C 79.74 429.32 90.64 416.21 104.25 409.66&#10;  A 1.08 1.08 0.0 0 0 104.65 408.05&#10;  C 93.91 393.59 93.75 372.89 96.42 355.48&#10;  Q 97.13 350.90 102.37 337.66&#10;  Q 102.59 337.11 102.04 336.86&#10;  Q 98.99 335.45 95.86 334.28&#10;  Q 71.31 325.06 50.81 312.91&#10;  C 34.01 302.95 16.74 288.65 7.47 270.42&#10;  Q 2.43 260.51 1.22 251.54&#10;  Q -0.92 235.60 6.95 220.64&#10;  Q 15.33 204.71 29.14 193.14&#10;  Q 42.08 182.31 51.40 176.88&#10;  Q 56.70 173.80 74.00 165.52&#10;  Q 85.66 159.94 99.97 156.05&#10;  Q 100.45 155.92 100.27 155.46&#10;  C 97.27 147.78 96.52 141.16 95.51 131.71&#10;  Q 94.33 120.68 94.42 109.25&#10;  A 1.22 1.21 -83.6 0 0 93.47 108.05&#10;  Q 88.25 106.90 83.00 105.19&#10;  C 61.40 98.13 46.33 79.38 46.22 56.40&#10;  Q 46.08 25.28 72.51 8.96&#10;  Q 77.60 5.81 83.99 4.09&#10;  C 89.32 2.65 94.96 1.26 100.44 1.56&#10;  C 125.29 2.90 141.16 17.12 151.12 39.24&#10;  A 1.78 1.73 4.9 0 0 151.76 39.98&#10;  Q 155.99 42.69 160.13 45.55&#10;  Q 162.71 47.33 165.96 48.47&#10;  Q 174.69 51.52 180.52 55.44&#10;  C 187.88 60.38 195.95 65.45 202.38 70.75&#10;  Q 211.48 78.25 219.60 86.86&#10;  Q 220.04 87.32 219.53 87.72&#10;  L 209.61 95.46&#10;  A 1.14 1.14 0.0 0 1 208.07 95.33&#10;  C 199.54 85.92 189.59 79.86 179.33 72.64&#10;  Q 167.39 64.24 152.55 63.53&#10;  Q 151.97 63.50 151.94 64.07&#10;  Q 151.65 69.62 149.12 74.79&#10;  Q 137.36 98.83 111.40 105.74&#10;  A 1.35 1.35 0.0 0 0 110.60 106.34&#10;  Q 109.53 108.12 109.77 110.50&#10;  Q 110.20 114.63 110.79 125.50&#10;  Q 111.80 144.41 115.44 162.99&#10;  C 116.07 166.21 110.69 169.19 108.24 170.00&#10;  C 97.30 173.62 85.79 177.44 75.83 182.06&#10;  Q 64.58 187.27 53.94 193.72&#10;  C 39.13 202.70 26.81 213.51 19.05 228.95&#10;  Q 12.14 242.69 17.56 257.24&#10;  Q 21.11 266.76 28.07 275.31&#10;  Q 33.47 281.94 42.66 288.90&#10;  Q 63.52 304.70 88.28 313.90&#10;  Q 99.89 318.21 112.34 322.83&#10;  A 2.91 2.90 9.6 0 1 114.22 325.47&#10;  Q 114.46 334.65 114.35 344.52&#10;  Q 114.32 347.49 113.32 350.88&#10;  Q 110.79 359.41 110.37 368.24&#10;  C 109.55 385.43 112.93 399.94 127.45 410.57&#10;  C 132.36 414.16 139.38 418.76 145.18 419.82&#10;  C 165.43 423.55 193.32 400.67 205.99 386.76&#10;  Q 224.15 366.82 235.43 346.83&#10;  Q 235.69 346.36 236.02 346.80&#10;  C 239.28 351.18 243.16 355.17 246.34 359.40&#10;  Q 259.47 376.86 274.98 392.23&#10;  C 279.60 396.80 285.06 400.79 290.26 404.96&#10;  C 303.12 415.27 323.20 426.58 339.39 416.75&#10;  C 351.34 409.50 361.63 399.58 364.94 385.64&#10;  Q 367.76 373.76 365.21 361.34&#10;  A 2.42 2.41 -79.0 0 0 364.19 359.82&#10;  C 358.40 355.93 353.09 350.71 350.14 344.43&#10;  C 340.17 323.24 358.36 301.53 380.65 305.49&#10;  C 385.04 306.27 390.52 308.69 395.56 310.18&#10;  A 1.42 1.40 -48.7 0 0 396.52 310.11&#10;  Q 408.94 304.54 420.59 297.62&#10;  C 438.00 287.30 459.49 269.29 460.49 247.44&#10;  C 460.72 242.47 460.64 237.40 458.81 232.71&#10;  Q 453.16 218.18 440.79 207.46&#10;  Q 419.23 188.80 393.85 178.94&#10;  Q 376.99 172.38 355.73 166.84&#10;  Q 353.10 166.15 351.62 162.72&#10;  Q 351.44 162.30 351.49 161.85&#10;  L 352.80 150.78&#10;  Q 353.09 148.36 355.52 148.19&#10;  C 358.43 147.98 366.03 148.44 368.26 151.51&#10;  Q 368.57 151.94 369.10 152.04&#10;  Q 374.81 153.03 380.03 155.51&#10;  A 0.11 0.10 70.8 0 0 380.12 155.32&#10;  Z&#10;  M 361.13 154.16&#10;  L 363.62 157.66&#10;  Q 363.91 158.07 363.62 158.48&#10;  Q 362.54 160.00 363.31 161.62&#10;  Q 363.59 162.21 364.21 162.03&#10;  Q 366.45 161.37 367.30 159.30&#10;  Q 367.51 158.81 367.15 158.43&#10;  Q 364.63 155.70 361.49 153.77&#10;  Q 360.34 153.05 361.13 154.16&#10;  Z"/>
<path fill="#ffa820" d="&#10;  M 176.91 303.28&#10;  L 176.86 380.84&#10;  Q 176.86 382.79 174.91 382.78&#10;  L 137.04 382.65&#10;  A 1.36 1.36 0.0 0 1 135.68 381.29&#10;  L 135.69 116.88&#10;  Q 135.69 114.99 137.57 115.00&#10;  Q 179.65 115.16 221.50 115.20&#10;  C 239.96 115.22 255.61 117.26 272.50 123.00&#10;  Q 276.57 124.38 281.24 126.96&#10;  C 284.98 129.04 289.03 131.03 292.35 133.36&#10;  C 321.56 153.75 332.62 189.33 328.47 223.52&#10;  C 325.18 250.67 311.26 273.44 288.01 288.76&#10;  Q 286.35 289.85 283.76 292.54&#10;  A 0.70 0.70 0.0 0 0 283.66 293.37&#10;  C 297.02 316.63 310.64 339.72 324.42 362.70&#10;  C 328.35 369.26 330.29 375.06 331.90 382.18&#10;  A 1.24 1.23 -11.0 0 1 330.89 383.67&#10;  Q 322.09 385.10 313.27 383.79&#10;  A 1.13 1.13 0.0 0 1 312.43 383.20&#10;  L 312.10 382.59&#10;  Q 311.88 382.18 311.41 382.12&#10;  Q 300.32 380.81 289.52 383.62&#10;  A 1.41 1.40 -23.6 0 1 287.98 383.02&#10;  L 237.41 303.66&#10;  A 1.88 1.68 -14.4 0 0 235.88 302.87&#10;  L 177.47 302.73&#10;  Q 176.91 302.73 176.91 303.28&#10;  Z&#10;  M 176.91 257.60&#10;  A 0.68 0.68 0.0 0 0 177.58 258.28&#10;  Q 208.12 258.35 238.84 258.19&#10;  C 241.27 258.17 243.90 257.64 246.42 257.39&#10;  C 263.78 255.70 277.16 245.61 282.75 229.06&#10;  Q 286.36 218.38 285.42 205.77&#10;  C 283.89 185.38 273.61 169.53 254.34 163.07&#10;  Q 244.95 159.92 235.48 159.63&#10;  Q 219.09 159.11 177.38 159.60&#10;  Q 176.89 159.60 176.89 160.09&#10;  L 176.91 257.60&#10;  Z"/>
</svg>